<svg width="664" height="98" viewBox="0 0 664 98" fill="none" xmlns="http://www.w3.org/2000/svg" xmlns:xlink="http://www.w3.org/1999/xlink">
<path d="M0,10C0,4.477 4.477,0 10,0L654,0C659.522,0 664,4.477 664,10L664,88C664,93.523 659.522,98 654,98L10,98C4.477,98 0,93.523 0,88L0,10Z" fill="#FFFFFF" stroke="#E8E8E8" stroke-width="2" stroke-miterlimit="3.999327"/>
<path d="M612,42L580,42C577.8,42 576.02,43.8 576.02,46L576,70C576,72.2 577.8,74 580,74L612,74C614.2,74 616,72.2 616,70L616,46C616,43.8 614.2,42 612,42ZM612,50L596,60L580,50L580,46L596,56L612,46L612,50Z" fill="#000000"/>
</svg>
