<svg width="444" height="56" viewBox="0 0 444 56" fill="none" xmlns="http://www.w3.org/2000/svg" xmlns:xlink="http://www.w3.org/1999/xlink">
<rect  x="2.679" y="0" width="441.321" height="56" rx="40" fill="#D9D9D9"/>
<rect  x="0.168" y="2" width="60.075" height="52" rx="40" fill="#E6E3E3"/>
<path d="M38.966,32.333L36.989,32.333L36.288,31.748C38.741,29.278 40.218,26.072 40.218,22.583C40.218,14.805 32.934,8.5 23.947,8.5C14.961,8.5 7.677,14.805 7.677,22.583C7.677,30.362 14.961,36.667 23.947,36.667C27.977,36.667 31.682,35.388 34.536,33.265L35.211,33.872L35.211,35.583L47.727,46.395L51.457,43.167L38.966,32.333ZM23.947,32.333C17.714,32.333 12.683,27.978 12.683,22.583C12.683,17.188 17.714,12.833 23.947,12.833C30.18,12.833 35.211,17.188 35.211,22.583C35.211,27.978 30.18,32.333 23.947,32.333Z" fill="#000000"/>
</svg>
