<svg width="48" height="48" viewBox="0 0 48 48" fill="none" xmlns="http://www.w3.org/2000/svg" xmlns:xlink="http://www.w3.org/1999/xlink">
<path d="M44.828,6.828C46.391,5.266 46.391,2.734 44.828,1.172C43.266,-0.391 40.734,-0.391 39.172,1.172L44.828,6.828ZM7.224,38.776L4.347,41.555C4.357,41.565 4.367,41.575 4.377,41.585L7.224,38.776ZM22.778,23.222L19.999,26.099C21.569,27.615 24.064,27.593 25.606,26.05L22.778,23.222ZM37,21L34.172,23.828C35.734,25.391 38.266,25.391 39.828,23.828L37,21ZM44,14L46.828,16.828C48.391,15.266 48.391,12.734 46.828,11.172L44,14ZM39.172,1.172L35.172,5.172L40.828,10.828L44.828,6.828L39.172,1.172ZM19.971,26.067C20.628,26.716 21.15,27.488 21.508,28.339L28.883,25.24C28.117,23.416 26.998,21.762 25.589,20.373L19.971,26.067ZM21.508,28.339C21.865,29.19 22.051,30.103 22.054,31.027L30.054,31C30.047,29.022 29.65,27.064 28.883,25.24L21.508,28.339ZM22.054,31.027C22.057,31.95 21.878,32.865 21.526,33.718L28.922,36.767C29.676,34.938 30.061,32.978 30.054,31L22.054,31.027ZM21.526,33.718C21.174,34.572 20.657,35.347 20.004,36L25.661,41.657C27.06,40.258 28.168,38.596 28.922,36.767L21.526,33.718ZM20.004,36C19.351,36.653 18.576,37.17 17.722,37.522L20.771,44.918C22.6,44.164 24.262,43.056 25.661,41.657L20.004,36ZM17.722,37.522C16.869,37.874 15.954,38.053 15.031,38.05L15.004,46.05C16.982,46.057 18.942,45.672 20.771,44.918L17.722,37.522ZM15.031,38.05C14.108,38.047 13.194,37.861 12.343,37.504L9.244,44.879C11.068,45.646 13.026,46.043 15.004,46.05L15.031,38.05ZM12.343,37.504C11.492,37.146 10.72,36.624 10.071,35.967L4.377,41.585C5.766,42.994 7.42,44.113 9.244,44.879L12.343,37.504ZM10.101,35.997C8.826,34.677 8.121,32.909 8.136,31.073L0.137,31.004C0.103,34.937 1.615,38.726 4.347,41.555L10.101,35.997ZM8.136,31.073C8.152,29.238 8.889,27.482 10.186,26.184L4.53,20.528C1.749,23.309 0.171,27.071 0.137,31.004L8.136,31.073ZM10.186,26.184C11.484,24.887 13.24,24.15 15.075,24.134L15.006,16.135C11.073,16.169 7.311,17.746 4.53,20.528L10.186,26.184ZM15.075,24.134C16.911,24.118 18.679,24.824 19.999,26.099L25.557,20.345C22.728,17.612 18.939,16.101 15.006,16.135L15.075,24.134ZM25.606,26.05L25.608,26.048L19.952,20.392L19.95,20.394L25.606,26.05ZM25.608,26.048L33.828,17.828L28.172,12.172L19.952,20.392L25.608,26.048ZM28.172,17.828L34.172,23.828L39.828,18.172L33.828,12.172L28.172,17.828ZM39.828,23.828L46.828,16.828L41.172,11.172L34.172,18.172L39.828,23.828ZM46.828,11.172L40.828,5.172L35.172,10.828L41.172,16.828L46.828,11.172ZM33.828,17.828L40.828,10.828L35.172,5.172L28.172,12.172L33.828,17.828Z" fill="#1E1E1E"/>
</svg>
