<svg width="28" height="40" viewBox="0 0 28 40" fill="none" xmlns="http://www.w3.org/2000/svg" xmlns:xlink="http://www.w3.org/1999/xlink">
<path d="M14,40C13.533,40 13.133,39.867 12.8,39.6C12.467,39.333 12.217,38.983 12.05,38.55C11.417,36.683 10.617,34.933 9.65,33.3C8.717,31.667 7.4,29.75 5.7,27.55C4,25.35 2.617,23.25 1.55,21.25C0.517,19.25 0,16.833 0,14C0,10.1 1.35,6.8 4.05,4.1C6.783,1.367 10.1,0 14,0C17.9,0 21.2,1.367 23.9,4.1C26.633,6.8 28,10.1 28,14C28,17.033 27.417,19.567 26.25,21.6C25.117,23.6 23.8,25.583 22.3,27.55C20.5,29.95 19.133,31.95 18.2,33.55C17.3,35.117 16.55,36.783 15.95,38.55C15.783,39.017 15.517,39.383 15.15,39.65C14.817,39.883 14.433,40 14,40ZM14,32.85C14.567,31.717 15.2,30.6 15.9,29.5C16.633,28.4 17.7,26.933 19.1,25.1C20.533,23.233 21.7,21.517 22.6,19.95C23.533,18.35 24,16.367 24,14C24,11.233 23.017,8.883 21.05,6.95C19.117,4.983 16.767,4 14,4C11.233,4 8.867,4.983 6.9,6.95C4.967,8.883 4,11.233 4,14C4,16.367 4.45,18.35 5.35,19.95C6.283,21.517 7.467,23.233 8.9,25.1C10.3,26.933 11.35,28.4 12.05,29.5C12.783,30.6 13.433,31.717 14,32.85ZM14,19C15.4,19 16.583,18.517 17.55,17.55C18.517,16.583 19,15.4 19,14C19,12.6 18.517,11.417 17.55,10.45C16.583,9.483 15.4,9 14,9C12.6,9 11.417,9.483 10.45,10.45C9.483,11.417 9,12.6 9,14C9,15.4 9.483,16.583 10.45,17.55C11.417,18.517 12.6,19 14,19Z" fill="#1D1B20"/>
</svg>
