<svg width="52" height="40" viewBox="0 0 52 40" fill="none" xmlns="http://www.w3.org/2000/svg" xmlns:xlink="http://www.w3.org/1999/xlink">
<path d="M4,12C1.791,12 0,13.791 0,16C0,18.209 1.791,20 4,20L4,12ZM48,20C50.209,20 52,18.209 52,16C52,13.791 50.209,12 48,12L48,20ZM8,8L44,8L44,0L8,0L8,8ZM44,8L52,8C52,3.582 48.418,0 44,0L44,8ZM44,8L44,32L52,32L52,8L44,8ZM44,32L44,40C48.418,40 52,36.418 52,32L44,32ZM44,32L8,32L8,40L44,40L44,32ZM8,32L0,32C0,36.418 3.582,40 8,40L8,32ZM8,32L8,8L0,8L0,32L8,32ZM8,8L8,0C3.582,0 0,3.582 0,8L8,8ZM4,20L48,20L48,12L4,12L4,20Z" fill="#1E1E1E"/>
</svg>
