<svg width="32" height="32" viewBox="0 0 32 32" fill="none" xmlns="http://www.w3.org/2000/svg" xmlns:xlink="http://www.w3.org/1999/xlink">
<path d="M31,6.58L24.1,0.79L22.165,3.085L29.065,8.875L31,6.58ZM9.82,3.085L7.9,0.79L1,6.565L2.935,8.86L9.82,3.085ZM16.75,10L14.5,10L14.5,19L21.625,23.275L22.75,21.43L16.75,17.875L16.75,10ZM16,4C8.545,4 2.5,10.045 2.5,17.5C2.5,24.955 8.53,31 16,31C23.455,31 29.5,24.955 29.5,17.5C29.5,10.045 23.455,4 16,4ZM16,28C10.195,28 5.5,23.305 5.5,17.5C5.5,11.695 10.195,7 16,7C21.805,7 26.5,11.695 26.5,17.5C26.5,23.305 21.805,28 16,28Z" fill="#000000"/>
</svg>
