<svg width="54" height="46" viewBox="0 0 54 46" fill="none" xmlns="http://www.w3.org/2000/svg" xmlns:xlink="http://www.w3.org/1999/xlink">
<path d="M30.5,0.582C18.075,0.582 8,10.657 8,23.082L0.5,23.082L10.225,32.807L10.4,33.157L20.5,23.082L13,23.082C13,13.407 20.825,5.582 30.5,5.582C40.175,5.582 48,13.407 48,23.082C48,32.757 40.175,40.582 30.5,40.582C25.675,40.582 21.3,38.607 18.15,35.432L14.6,38.982C18.675,43.057 24.275,45.582 30.5,45.582C42.925,45.582 53,35.507 53,23.082C53,10.657 42.925,0.582 30.5,0.582ZM28,13.082L28,25.582L38.7,31.932L40.5,28.907L31.75,23.707L31.75,13.082L28,13.082Z" fill="#000000"/>
</svg>
