<svg width="52" height="52" viewBox="0 0 52 52" fill="none" xmlns="http://www.w3.org/2000/svg" xmlns:xlink="http://www.w3.org/1999/xlink">
<path d="M26,1C12.2,1 1,12.2 1,26C1,39.8 12.2,51 26,51C39.8,51 51,39.8 51,26C51,12.2 39.8,1 26,1ZM26,11C30.825,11 34.75,14.925 34.75,19.75C34.75,24.575 30.825,28.5 26,28.5C21.175,28.5 17.25,24.575 17.25,19.75C17.25,14.925 21.175,11 26,11ZM26,46C20.925,46 14.925,43.95 10.65,38.8C14.875,35.5 20.2,33.5 26,33.5C31.8,33.5 37.125,35.5 41.35,38.8C37.075,43.95 31.075,46 26,46Z" fill="#000000"/>
</svg>
