<svg width="44" height="44" viewBox="0 0 44 44" fill="none" xmlns="http://www.w3.org/2000/svg" xmlns:xlink="http://www.w3.org/1999/xlink">
<path d="M23.78,20.2C20.22,19.02 18.5,18.28 18.5,16.4C18.5,14.36 20.72,13.62 22.12,13.62C24.74,13.62 25.7,15.6 25.92,16.3L29.08,14.96C28.78,14.06 27.44,11.12 24,10.48L24,8L20,8L20,10.52C15.04,11.64 15.02,16.24 15.02,16.44C15.02,20.98 19.52,22.26 21.72,23.06C24.88,24.18 26.28,25.2 26.28,27.12C26.28,29.38 24.18,30.34 22.32,30.34C18.68,30.34 17.64,26.6 17.52,26.16L14.2,27.5C15.46,31.88 18.76,33.06 20,33.42L20,36L24,36L24,33.52C24.8,33.34 29.8,32.34 29.8,27.08C29.8,24.3 28.58,21.86 23.78,20.2ZM4,40L0,40L0,28L12,28L12,32L7.04,32C10.26,36.82 15.76,40 22,40C31.94,40 40,31.94 40,22L44,22C44,34.16 34.16,44 22,44C14.56,44 7.98,40.3 4,34.66L4,40ZM0,22C0,9.84 9.84,0 22,0C29.44,0 36.02,3.7 40,9.34L40,4L44,4L44,16L32,16L32,12L36.96,12C33.74,7.18 28.24,4 22,4C12.06,4 4,12.06 4,22L0,22Z" fill="#E8EAED"/>
</svg>
