<svg width="28" height="34" viewBox="0 0 28 34" fill="none" xmlns="http://www.w3.org/2000/svg" xmlns:xlink="http://www.w3.org/1999/xlink">
<path d="M14,32.666C15.833,32.666 17.333,31.166 17.333,29.333L10.667,29.333C10.667,31.166 12.15,32.666 14,32.666ZM24,22.666L24,14.333C24,9.216 21.267,4.933 16.5,3.799L16.5,2.666C16.5,1.283 15.383,0.166 14,0.166C12.617,0.166 11.5,1.283 11.5,2.666L11.5,3.799C6.717,4.933 4,9.199 4,14.333L4,22.666L0.667,25.999L0.667,27.666L27.333,27.666L27.333,25.999L24,22.666Z" fill="#000000"/>
</svg>
