<svg width="32" height="38" viewBox="0 0 32 38" fill="none" xmlns="http://www.w3.org/2000/svg" xmlns:xlink="http://www.w3.org/1999/xlink">
<path d="M15.927,-0.333C5.737,8.008 0.632,15.213 0.632,21.3C0.632,30.43 7.897,36.333 15.927,36.333C23.956,36.333 31.221,30.43 31.221,21.3C31.221,15.213 26.117,8.008 15.927,-0.333ZM21.662,29L10.191,29L10.191,25.333L21.662,25.333L21.662,29ZM21.662,19.833L17.838,19.833L17.838,23.5L14.015,23.5L14.015,19.833L10.191,19.833L10.191,16.167L14.015,16.167L14.015,12.5L17.838,12.5L17.838,16.167L21.662,16.167L21.662,19.833Z" fill="#0000F5"/>
</svg>
