<svg width="40" height="40" viewBox="0 0 40 40" fill="none" xmlns="http://www.w3.org/2000/svg" xmlns:xlink="http://www.w3.org/1999/xlink">
<path d="M40,6.36L17.18,29.2L8.7,20.72L11.52,17.9L17.18,23.56L37.18,3.56L40,6.36ZM35.58,16.44C35.84,17.58 36,18.78 36,20C36,28.84 28.84,36 20,36C11.16,36 4,28.84 4,20C4,11.16 11.16,4 20,4C23.16,4 26.08,4.92 28.56,6.5L31.44,3.62C28.2,1.34 24.26,0 20,0C8.96,0 0,8.96 0,20C0,31.04 8.96,40 20,40C31.04,40 40,31.04 40,20C40,17.62 39.56,15.34 38.8,13.22L35.58,16.44Z" fill="#2200FF"/>
</svg>
