<svg width="44" height="38" viewBox="0 0 44 38" fill="none" xmlns="http://www.w3.org/2000/svg" xmlns:xlink="http://www.w3.org/1999/xlink">
<path d="M22,8C27.52,8 32,12.48 32,18C32,19.3 31.74,20.52 31.28,21.66L37.12,27.5C40.14,24.98 42.52,21.72 43.98,18C40.52,9.22 31.98,3 21.98,3C19.18,3 16.5,3.5 14.02,4.4L18.34,8.72C19.48,8.26 20.7,8 22,8ZM2,2.54L6.56,7.1L7.48,8.02C4.16,10.6 1.56,14.04 0,18C3.46,26.78 12,33 22,33C25.1,33 28.06,32.4 30.76,31.32L31.6,32.16L37.46,38L40,35.46L4.54,0L2,2.54ZM13.06,13.6L16.16,16.7C16.06,17.12 16,17.56 16,18C16,21.32 18.68,24 22,24C22.44,24 22.88,23.94 23.3,23.84L26.4,26.94C25.06,27.6 23.58,28 22,28C16.48,28 12,23.52 12,18C12,16.42 12.4,14.94 13.06,13.6ZM21.68,12.04L27.98,18.34L28.02,18.02C28.02,14.7 25.34,12.02 22.02,12.02L21.68,12.04Z" fill="#0000F5"/>
</svg>
