<svg width="50" height="52" viewBox="0 0 50 52" fill="none" xmlns="http://www.w3.org/2000/svg" xmlns:xlink="http://www.w3.org/1999/xlink">
<path d="M24,1C10.2,1 -1,12.2 -1,26C-1,39.8 10.2,51 24,51C37.8,51 49,39.8 49,26C49,12.2 37.8,1 24,1ZM24,11C28.825,11 32.75,14.925 32.75,19.75C32.75,24.575 28.825,28.5 24,28.5C19.175,28.5 15.25,24.575 15.25,19.75C15.25,14.925 19.175,11 24,11ZM24,46C18.925,46 12.925,43.95 8.65,38.8C12.875,35.5 18.2,33.5 24,33.5C29.8,33.5 35.125,35.5 39.35,38.8C35.075,43.95 29.075,46 24,46Z" fill="#000000"/>
</svg>
