<svg width="22" height="34" viewBox="0 0 22 34" fill="none" xmlns="http://www.w3.org/2000/svg" xmlns:xlink="http://www.w3.org/1999/xlink">
<path d="M10.512,32.667C12.047,32.667 13.302,31.167 13.302,29.333L7.721,29.333C7.721,31.167 8.963,32.667 10.512,32.667ZM18.884,22.667L18.884,14.333C18.884,9.217 16.595,4.933 12.605,3.8L12.605,2.667C12.605,1.283 11.67,0.167 10.512,0.167C9.354,0.167 8.419,1.283 8.419,2.667L8.419,3.8C4.414,4.933 2.14,9.2 2.14,14.333L2.14,22.667L-0.651,26L-0.651,27.667L21.674,27.667L21.674,26L18.884,22.667Z" fill="#000000"/>
</svg>
