<svg width="80" height="40" viewBox="0 0 80 40" fill="none" xmlns="http://www.w3.org/2000/svg" xmlns:xlink="http://www.w3.org/1999/xlink">
<path d="M0,40L0,34.75C0,32.361 1.222,30.417 3.667,28.917C6.111,27.417 9.333,26.667 13.333,26.667C14.056,26.667 14.75,26.681 15.417,26.708C16.083,26.736 16.722,26.806 17.333,26.917C16.556,28.083 15.972,29.306 15.583,30.583C15.194,31.861 15,33.194 15,34.583L15,40L0,40ZM20,40L20,34.583C20,32.806 20.486,31.181 21.458,29.708C22.431,28.236 23.806,26.944 25.583,25.833C27.361,24.722 29.486,23.889 31.958,23.333C34.431,22.778 37.111,22.5 40,22.5C42.944,22.5 45.653,22.778 48.125,23.333C50.597,23.889 52.722,24.722 54.5,25.833C56.278,26.944 57.639,28.236 58.583,29.708C59.528,31.181 60,32.806 60,34.583L60,40L20,40ZM65,40L65,34.583C65,33.139 64.819,31.778 64.458,30.5C64.097,29.222 63.556,28.028 62.833,26.917C63.444,26.806 64.069,26.736 64.708,26.708C65.347,26.681 66,26.667 66.667,26.667C70.667,26.667 73.889,27.403 76.333,28.875C78.778,30.347 80,32.306 80,34.75L80,40L65,40ZM27.083,33.333L53,33.333C52.444,32.222 50.903,31.25 48.375,30.417C45.847,29.583 43.056,29.167 40,29.167C36.944,29.167 34.153,29.583 31.625,30.417C29.097,31.25 27.583,32.222 27.083,33.333ZM13.333,23.333C11.5,23.333 9.931,22.681 8.625,21.375C7.319,20.069 6.667,18.5 6.667,16.667C6.667,14.778 7.319,13.194 8.625,11.917C9.931,10.639 11.5,10 13.333,10C15.222,10 16.806,10.639 18.083,11.917C19.361,13.194 20,14.778 20,16.667C20,18.5 19.361,20.069 18.083,21.375C16.806,22.681 15.222,23.333 13.333,23.333ZM66.667,23.333C64.833,23.333 63.264,22.681 61.958,21.375C60.653,20.069 60,18.5 60,16.667C60,14.778 60.653,13.194 61.958,11.917C63.264,10.639 64.833,10 66.667,10C68.556,10 70.139,10.639 71.417,11.917C72.694,13.194 73.333,14.778 73.333,16.667C73.333,18.5 72.694,20.069 71.417,21.375C70.139,22.681 68.556,23.333 66.667,23.333ZM40,20C37.222,20 34.861,19.028 32.917,17.083C30.972,15.139 30,12.778 30,10C30,7.167 30.972,4.792 32.917,2.875C34.861,0.958 37.222,0 40,0C42.833,0 45.208,0.958 47.125,2.875C49.042,4.792 50,7.167 50,10C50,12.778 49.042,15.139 47.125,17.083C45.208,19.028 42.833,20 40,20ZM40,13.333C40.944,13.333 41.736,13.014 42.375,12.375C43.014,11.736 43.333,10.944 43.333,10C43.333,9.056 43.014,8.264 42.375,7.625C41.736,6.986 40.944,6.667 40,6.667C39.056,6.667 38.264,6.986 37.625,7.625C36.986,8.264 36.667,9.056 36.667,10C36.667,10.944 36.986,11.736 37.625,12.375C38.264,13.014 39.056,13.333 40,13.333Z" fill="#000000"/>
</svg>
