<svg width="26" height="32" viewBox="0 0 26 32" fill="none" xmlns="http://www.w3.org/2000/svg" xmlns:xlink="http://www.w3.org/1999/xlink">
<path d="M24.358,6.58L18.614,0.79L17.003,3.085L22.747,8.875L24.358,6.58ZM6.725,3.085L5.126,0.79L-0.619,6.565L0.992,8.86L6.725,3.085ZM12.494,10L10.621,10L10.621,19L16.553,23.275L17.49,21.43L12.494,17.875L12.494,10ZM11.87,4C5.663,4 0.63,10.045 0.63,17.5C0.63,24.955 5.651,31 11.87,31C18.077,31 23.109,24.955 23.109,17.5C23.109,10.045 18.077,4 11.87,4ZM11.87,28C7.037,28 3.128,23.305 3.128,17.5C3.128,11.695 7.037,7 11.87,7C16.703,7 20.612,11.695 20.612,17.5C20.612,23.305 16.703,28 11.87,28Z" fill="#000000"/>
</svg>
