<svg width="38" height="38" viewBox="0 0 38 38" fill="none" xmlns="http://www.w3.org/2000/svg" xmlns:xlink="http://www.w3.org/1999/xlink">
<path d="M27.083,23.833L25.372,23.833L24.765,23.248C26.888,20.778 28.167,17.572 28.167,14.083C28.167,6.305 21.862,0 14.083,0C6.305,0 0,6.305 0,14.083C0,21.862 6.305,28.167 14.083,28.167C17.572,28.167 20.778,26.888 23.248,24.765L23.833,25.372L23.833,27.083L34.667,37.895L37.895,34.667L27.083,23.833ZM14.083,23.833C8.688,23.833 4.333,19.478 4.333,14.083C4.333,8.688 8.688,4.333 14.083,4.333C19.478,4.333 23.833,8.688 23.833,14.083C23.833,19.478 19.478,23.833 14.083,23.833Z" fill="#000000"/>
</svg>
