<svg width="26" height="32" viewBox="0 0 26 32" fill="none" xmlns="http://www.w3.org/2000/svg" xmlns:xlink="http://www.w3.org/1999/xlink">
<path d="M25.209,6.58L19.433,0.79L17.813,3.085L23.589,8.875L25.209,6.58ZM7.477,3.085L5.87,0.79L0.093,6.565L1.713,8.86L7.477,3.085ZM13.279,10L11.395,10L11.395,19L17.361,23.275L18.302,21.43L13.279,17.875L13.279,10ZM12.651,4C6.41,4 1.349,10.045 1.349,17.5C1.349,24.955 6.397,31 12.651,31C18.893,31 23.953,24.955 23.953,17.5C23.953,10.045 18.893,4 12.651,4ZM12.651,28C7.791,28 3.861,23.305 3.861,17.5C3.861,11.695 7.791,7 12.651,7C17.511,7 21.442,11.695 21.442,17.5C21.442,23.305 17.511,28 12.651,28Z" fill="#000000"/>
</svg>
