<svg width="30" height="32" viewBox="0 0 30 32" fill="none" xmlns="http://www.w3.org/2000/svg" xmlns:xlink="http://www.w3.org/1999/xlink">
<path d="M29,6.58L22.1,0.79L20.165,3.085L27.065,8.875L29,6.58ZM7.82,3.085L5.9,0.79L-1,6.565L0.935,8.86L7.82,3.085ZM14.75,10L12.5,10L12.5,19L19.625,23.275L20.75,21.43L14.75,17.875L14.75,10ZM14,4C6.545,4 0.5,10.045 0.5,17.5C0.5,24.955 6.53,31 14,31C21.455,31 27.5,24.955 27.5,17.5C27.5,10.045 21.455,4 14,4ZM14,28C8.195,28 3.5,23.305 3.5,17.5C3.5,11.695 8.195,7 14,7C19.805,7 24.5,11.695 24.5,17.5C24.5,23.305 19.805,28 14,28Z" fill="#000000"/>
</svg>
