<svg width="32" height="42" viewBox="0 0 32 42" fill="none" xmlns="http://www.w3.org/2000/svg" xmlns:xlink="http://www.w3.org/1999/xlink">
<path d="M16,32C18.2,32 20,30.2 20,28C20,25.8 18.2,24 16,24C13.8,24 12,25.8 12,28C12,30.2 13.8,32 16,32ZM28,14L26,14L26,10C26,4.48 21.52,0 16,0C10.48,0 6,4.48 6,10L9.8,10C9.8,6.58 12.58,3.8 16,3.8C19.42,3.8 22.2,6.58 22.2,10L22.2,14L4,14C1.8,14 0,15.8 0,18L0,38C0,40.2 1.8,42 4,42L28,42C30.2,42 32,40.2 32,38L32,18C32,15.8 30.2,14 28,14ZM28,38L4,38L4,18L28,18L28,38Z" fill="#0040FF"/>
</svg>
