<svg width="32" height="32" viewBox="0 0 32 32" fill="none" xmlns="http://www.w3.org/2000/svg" xmlns:xlink="http://www.w3.org/1999/xlink">
<path d="M31,6.579L24.1,0.789L22.165,3.084L29.065,8.874L31,6.579ZM9.82,3.084L7.9,0.789L1,6.564L2.935,8.859L9.82,3.084ZM16.75,9.999L14.5,9.999L14.5,18.999L21.625,23.274L22.75,21.429L16.75,17.874L16.75,9.999ZM16,3.999C8.545,3.999 2.5,10.044 2.5,17.499C2.5,24.954 8.53,30.999 16,30.999C23.455,30.999 29.5,24.954 29.5,17.499C29.5,10.044 23.455,3.999 16,3.999ZM16,27.999C10.195,27.999 5.5,23.304 5.5,17.499C5.5,11.694 10.195,6.999 16,6.999C21.805,6.999 26.5,11.694 26.5,17.499C26.5,23.304 21.805,27.999 16,27.999Z" fill="#000000"/>
</svg>
