<svg width="150" height="150" viewBox="0 0 150 150" fill="none" xmlns="http://www.w3.org/2000/svg" xmlns:xlink="http://www.w3.org/1999/xlink">
<path d="M25,110.526C31.904,110.526 37.5,103.457 37.5,94.737C37.5,86.016 31.904,78.947 25,78.947C18.096,78.947 12.5,86.016 12.5,94.737C12.5,103.457 18.096,110.526 25,110.526Z" fill="#000000"/>
<path d="M7.625,123C3,125.526 0,131.211 0,137.605L0,150L28.125,150L28.125,137.29C28.125,130.737 29.562,124.579 32.062,119.211C29.75,118.737 27.438,118.421 25,118.421C18.813,118.421 12.938,120.079 7.625,123Z" fill="#000000"/>
<path d="M125,110.526C131.904,110.526 137.5,103.457 137.5,94.737C137.5,86.016 131.904,78.947 125,78.947C118.096,78.947 112.5,86.016 112.5,94.737C112.5,103.457 118.096,110.526 125,110.526Z" fill="#000000"/>
<path d="M142.376,123C137.063,120.079 131.188,118.421 125.001,118.421C122.563,118.421 120.251,118.737 117.938,119.211C120.438,124.579 121.876,130.737 121.876,137.29L121.876,150L150.001,150L150.001,137.605C150.001,131.211 147.001,125.526 142.376,123Z" fill="#000000"/>
<path d="M101.5,115.658C94.188,111.553 85.188,108.553 75,108.553C64.812,108.553 55.813,111.632 48.5,115.658C41.75,119.447 37.5,127.974 37.5,137.29L37.5,150L112.5,150L112.5,137.29C112.5,127.974 108.25,119.447 101.5,115.658Z" fill="#000000"/>
<path d="M56.25,78.947C56.25,92.053 64.625,102.632 75,102.632C85.375,102.632 93.75,92.053 93.75,78.947C93.75,65.842 85.375,55.263 75,55.263C64.625,55.263 56.25,65.842 56.25,78.947Z" fill="#000000"/>
<path d="M15.5,69.947C13.563,63.947 12.5,58.105 12.5,52.105C12.5,31.737 25.125,15.789 41.25,15.789C58,15.789 65.125,29.526 75,44.132C84.812,29.684 91.875,15.789 108.75,15.789C124.875,15.789 137.5,31.737 137.5,52.105C137.5,58.105 136.438,63.947 134.5,69.947C138.562,72.395 141.875,76.421 144.062,81.316C147.812,71.842 150,62.211 150,52.105C150,22.895 131.875,0 108.75,0C95.688,0 83.188,7.658 75,19.816C66.812,7.658 54.312,0 41.25,0C18.125,0 0,22.895 0,52.105C0,62.211 2.188,71.842 6,81.316C8.188,76.421 11.5,72.395 15.5,69.947Z" fill="#000000"/>
</svg>
