<svg width="50" height="48" viewBox="0 0 50 48" fill="none" xmlns="http://www.w3.org/2000/svg" xmlns:xlink="http://www.w3.org/1999/xlink">
<path d="M44,33.84L40.001,33.741C40,33.774 40,33.807 40,33.84L44,33.84ZM44,39.84L40,39.84L40,39.856L44,39.84ZM39.64,43.84L39.208,47.817C39.232,47.819 39.256,47.822 39.28,47.824L39.64,43.84ZM22.38,37.7L24.556,34.344C24.546,34.337 24.536,34.331 24.525,34.324L22.38,37.7ZM10.38,25.7L13.756,23.555C13.75,23.545 13.743,23.535 13.737,23.525L10.38,25.7ZM4.24,8.36L0.256,8.72C0.258,8.741 0.26,8.762 0.262,8.782L4.24,8.36ZM8.22,4L8.22,0L8.216,0L8.22,4ZM14.22,4L14.22,8C14.233,8 14.246,8 14.259,8L14.22,4ZM18.22,7.44L22.186,6.917C22.184,6.905 22.182,6.892 22.181,6.88L18.22,7.44ZM19.62,13.06L15.872,14.458L15.876,14.467L19.62,13.06ZM18.72,17.28L21.548,20.108L21.564,20.093L18.72,17.28ZM16.18,19.82L13.352,16.992C12.078,18.265 11.813,20.232 12.703,21.797L16.18,19.82ZM28.18,31.82L26.203,35.297C27.768,36.187 29.735,35.922 31.008,34.648L28.18,31.82ZM30.72,29.28L27.907,26.436L27.892,26.452L30.72,29.28ZM34.94,28.38L33.533,32.124L33.542,32.128L34.94,28.38ZM40.56,29.78L41.119,25.819C41.107,25.818 41.095,25.816 41.083,25.814L40.56,29.78ZM40,33.84L40,39.84L48,39.84L48,33.84L40,33.84ZM40,39.856L40,39.856L47.33,43.061C47.776,42.04 48.005,40.938 48,39.824L40,39.856ZM40,39.856L40,39.856L45.408,45.751C46.229,44.998 46.884,44.082 47.33,43.061L40,39.856ZM40,39.856L40,39.856L42.563,47.435C43.618,47.078 44.587,46.504 45.408,45.751L40,39.856ZM40,39.856L40,39.856L39.28,47.824C40.389,47.924 41.508,47.791 42.563,47.435L40,39.856ZM40.072,39.863C34.54,39.262 29.226,37.372 24.556,34.344L20.204,41.056C25.923,44.765 32.432,47.08 39.208,47.817L40.072,39.863ZM24.525,34.324C20.189,31.568 16.512,27.891 13.756,23.555L7.004,27.845C10.39,33.173 14.907,37.69 20.235,41.076L24.525,34.324ZM13.737,23.525C10.699,18.835 8.808,13.495 8.218,7.938L0.262,8.782C0.985,15.589 3.301,22.13 7.023,27.875L13.737,23.525ZM8.224,8L8.224,8L0.642,5.446C0.288,6.499 0.156,7.614 0.256,8.72L8.224,8ZM8.224,8L8.224,8L2.315,2.606C1.566,3.427 0.997,4.394 0.642,5.446L8.224,8ZM8.224,8L8.224,8L4.991,0.682C3.975,1.131 3.064,1.786 2.315,2.606L8.224,8ZM8.224,8L8.224,8L8.216,0C7.106,0.001 6.007,0.233 4.991,0.682L8.224,8ZM8.22,8L14.22,8L14.22,0L8.22,0L8.22,8ZM14.259,8L14.259,8L19.476,1.934C18.004,0.668 16.122,-0.019 14.181,0L14.259,8ZM14.259,8L14.259,8L22.181,6.88C21.909,4.958 20.948,3.2 19.476,1.934L14.259,8ZM14.254,7.963C14.547,10.182 15.09,12.361 15.872,14.458L23.368,11.662C22.796,10.13 22.399,8.538 22.186,6.917L14.254,7.963ZM15.876,14.467L15.876,14.467L23.7,16.136C24.019,14.64 23.902,13.084 23.364,11.653L15.876,14.467ZM15.876,14.467L15.876,14.467L21.564,20.093C22.64,19.005 23.381,17.632 23.7,16.136L15.876,14.467ZM15.892,14.452L13.352,16.992L19.008,22.648L21.548,20.108L15.892,14.452ZM12.703,21.797C15.906,27.43 20.57,32.094 26.203,35.297L30.157,28.343C25.776,25.852 22.148,22.224 19.657,17.843L12.703,21.797ZM31.008,34.648L33.548,32.108L27.892,26.452L25.352,28.992L31.008,34.648ZM33.533,32.124L33.533,32.124L31.864,24.3C30.368,24.619 28.995,25.36 27.907,26.436L33.533,32.124ZM33.533,32.124L33.533,32.124L36.347,24.636C34.916,24.098 33.36,23.981 31.864,24.3L33.533,32.124ZM33.542,32.128C35.639,32.91 37.818,33.453 40.037,33.746L41.083,25.814C39.462,25.601 37.87,25.204 36.338,24.632L33.542,32.128ZM40.001,33.741L40.001,33.741L46.105,28.569C44.836,27.072 43.062,26.093 41.119,25.819L40.001,33.741ZM40.001,33.741L40.001,33.741L47.999,33.939C48.047,31.978 47.373,30.066 46.105,28.569L40.001,33.741Z" fill="#1E1E1E"/>
</svg>
