<svg width="36" height="40" viewBox="0 0 36 40" fill="none" xmlns="http://www.w3.org/2000/svg" xmlns:xlink="http://www.w3.org/1999/xlink">
<path d="M32,4L30,4L30,0L26,0L26,4L10,4L10,0L6,0L6,4L4,4C1.78,4 0.02,5.8 0.02,8L0,36C0,38.2 1.78,40 4,40L32,40C34.2,40 36,38.2 36,36L36,8C36,5.8 34.2,4 32,4ZM32,36L4,36L4,16L32,16L32,36ZM12,24L8,24L8,20L12,20L12,24ZM20,24L16,24L16,20L20,20L20,24ZM28,24L24,24L24,20L28,20L28,24ZM12,32L8,32L8,28L12,28L12,32ZM20,32L16,32L16,28L20,28L20,32ZM28,32L24,32L24,28L28,28L28,32Z" fill="#000000"/>
</svg>
