<svg width="134" height="134" viewBox="0 0 134 134" fill="none" xmlns="http://www.w3.org/2000/svg" xmlns:xlink="http://www.w3.org/1999/xlink">
<path d="M12.667,12.667L59.333,12.667L59.333,-0.667L12.667,-0.667C5.333,-0.667 -0.667,5.333 -0.667,12.667L-0.667,59.333L12.667,59.333L12.667,12.667ZM52.667,72.667L26,106L106,106L86,79.333L72.467,97.4L52.667,72.667ZM99.333,42.667C99.333,37.133 94.867,32.667 89.333,32.667C83.8,32.667 79.333,37.133 79.333,42.667C79.333,48.2 83.8,52.667 89.333,52.667C94.867,52.667 99.333,48.2 99.333,42.667ZM119.333,-0.667L72.667,-0.667L72.667,12.667L119.333,12.667L119.333,59.333L132.667,59.333L132.667,12.667C132.667,5.333 126.667,-0.667 119.333,-0.667ZM119.333,119.333L72.667,119.333L72.667,132.667L119.333,132.667C126.667,132.667 132.667,126.667 132.667,119.333L132.667,72.667L119.333,72.667L119.333,119.333ZM12.667,72.667L-0.667,72.667L-0.667,119.333C-0.667,126.667 5.333,132.667 12.667,132.667L59.333,132.667L59.333,119.333L12.667,119.333L12.667,72.667Z" fill="#2992D2"/>
</svg>
