<svg width="24" height="34" viewBox="0 0 24 34" fill="none" xmlns="http://www.w3.org/2000/svg" xmlns:xlink="http://www.w3.org/1999/xlink">
<path d="M11.498,32.667C13.024,32.667 14.273,31.167 14.273,29.333L8.722,29.333C8.722,31.167 9.957,32.667 11.498,32.667ZM19.823,22.667L19.823,14.333C19.823,9.217 17.548,4.933 13.579,3.8L13.579,2.667C13.579,1.283 12.649,0.167 11.498,0.167C10.346,0.167 9.416,1.283 9.416,2.667L9.416,3.8C5.434,4.933 3.172,9.2 3.172,14.333L3.172,22.667L0.397,26L0.397,27.667L22.598,27.667L22.598,26L19.823,22.667Z" fill="#000000"/>
</svg>
