<svg width="40" height="40" viewBox="0 0 40 40" fill="none" xmlns="http://www.w3.org/2000/svg" xmlns:xlink="http://www.w3.org/1999/xlink">
<path d="M27.583,24.333L25.872,24.333L25.265,23.748C27.388,21.278 28.667,18.072 28.667,14.583C28.667,6.805 22.362,0.5 14.583,0.5C6.805,0.5 0.5,6.805 0.5,14.583C0.5,22.362 6.805,28.667 14.583,28.667C18.072,28.667 21.278,27.388 23.748,25.265L24.333,25.872L24.333,27.583L35.167,38.395L38.395,35.167L27.583,24.333ZM14.583,24.333C9.188,24.333 4.833,19.978 4.833,14.583C4.833,9.188 9.188,4.833 14.583,4.833C19.978,4.833 24.333,9.188 24.333,14.583C24.333,19.978 19.978,24.333 14.583,24.333Z" fill="#000000"/>
</svg>
