<svg width="52" height="50" viewBox="0 0 52 50" fill="none" xmlns="http://www.w3.org/2000/svg" xmlns:xlink="http://www.w3.org/1999/xlink">
<path d="M26,31.5L36,21.5L16,21.5L26,31.5ZM26,49C22.542,49 19.292,48.344 16.25,47.031C13.208,45.719 10.563,43.938 8.313,41.688C6.063,39.438 4.281,36.792 2.969,33.75C1.656,30.708 1,27.458 1,24C1,20.542 1.656,17.292 2.969,14.25C4.281,11.208 6.063,8.563 8.313,6.313C10.563,4.063 13.208,2.281 16.25,0.969C19.292,-0.344 22.542,-1 26,-1C29.458,-1 32.708,-0.344 35.75,0.969C38.792,2.281 41.438,4.063 43.688,6.313C45.938,8.563 47.719,11.208 49.031,14.25C50.344,17.292 51,20.542 51,24C51,27.458 50.344,30.708 49.031,33.75C47.719,36.792 45.938,39.438 43.688,41.688C41.438,43.938 38.792,45.719 35.75,47.031C32.708,48.344 29.458,49 26,49ZM26,44C31.583,44 36.312,42.062 40.188,38.188C44.062,34.312 46,29.583 46,24C46,18.417 44.062,13.688 40.188,9.813C36.312,5.938 31.583,4 26,4C20.417,4 15.688,5.938 11.813,9.813C7.938,13.688 6,18.417 6,24C6,29.583 7.938,34.312 11.813,38.188C15.688,42.062 20.417,44 26,44Z" fill="#2200FF"/>
</svg>
