<svg width="70" height="60" viewBox="0 0 70 60" fill="none" xmlns="http://www.w3.org/2000/svg" xmlns:xlink="http://www.w3.org/1999/xlink">
<path d="M39.333,0C22.767,0 9.333,13.433 9.333,30L-0.667,30L12.3,42.967L12.533,43.433L26,30L16,30C16,17.1 26.433,6.667 39.333,6.667C52.233,6.667 62.667,17.1 62.667,30C62.667,42.9 52.233,53.333 39.333,53.333C32.9,53.333 27.067,50.7 22.867,46.467L18.133,51.2C23.567,56.633 31.033,60 39.333,60C55.9,60 69.333,46.567 69.333,30C69.333,13.433 55.9,0 39.333,0ZM36,16.667L36,33.333L50.267,41.8L52.667,37.767L41,30.833L41,16.667L36,16.667Z" fill="#000000"/>
</svg>
