<svg width="44" height="24" viewBox="0 0 44 24" fill="none" xmlns="http://www.w3.org/2000/svg" xmlns:xlink="http://www.w3.org/1999/xlink">
<path d="M2,20L42,20L42,24L2,24L2,20ZM4.3,11.9L6,8.94L7.7,11.9L10.3,10.4L8.6,7.44L12,7.44L12,4.44L8.6,4.44L10.3,1.5L7.7,0L6,2.94L4.3,0L1.7,1.5L3.4,4.44L0,4.44L0,7.44L3.4,7.44L1.7,10.4L4.3,11.9ZM17.7,10.4L20.3,11.9L22,8.94L23.7,11.9L26.3,10.4L24.6,7.44L28,7.44L28,4.44L24.6,4.44L26.3,1.5L23.7,0L22,2.94L20.3,0L17.7,1.5L19.4,4.44L16,4.44L16,7.44L19.4,7.44L17.7,10.4ZM44,4.44L40.6,4.44L42.3,1.5L39.7,0L38,2.94L36.3,0L33.7,1.5L35.4,4.44L32,4.44L32,7.44L35.4,7.44L33.7,10.4L36.3,11.9L38,8.94L39.7,11.9L42.3,10.4L40.6,7.44L44,7.44L44,4.44Z" fill="#0000F5"/>
</svg>
