<svg width="38" height="44" viewBox="0 0 38 44" fill="none" xmlns="http://www.w3.org/2000/svg" xmlns:xlink="http://www.w3.org/1999/xlink">
<path d="M34,36L12,36C10.9,36 9.958,35.608 9.175,34.825C8.392,34.042 8,33.1 8,32L8,4C8,2.9 8.392,1.958 9.175,1.175C9.958,0.392 10.9,0 12,0L26,0L38,12L38,32C38,33.1 37.608,34.042 36.825,34.825C36.042,35.608 35.1,36 34,36ZM24,14L24,4L12,4L12,32L34,32L34,14L24,14ZM4,44C2.9,44 1.958,43.608 1.175,42.825C0.392,42.042 0,41.1 0,40L0,12L4,12L4,40L26,40L26,44L4,44Z" fill="#2200FF"/>
</svg>
