<svg width="38" height="40" viewBox="0 0 38 40" fill="none" xmlns="http://www.w3.org/2000/svg" xmlns:xlink="http://www.w3.org/1999/xlink">
<path d="M32.28,21.88C32.36,21.28 32.4,20.66 32.4,20C32.4,19.36 32.36,18.72 32.26,18.12L36.32,14.96C36.68,14.68 36.78,14.14 36.56,13.74L32.72,7.1C32.48,6.66 31.98,6.52 31.54,6.66L26.76,8.58C25.76,7.82 24.7,7.18 23.52,6.7L22.8,1.62C22.72,1.14 22.32,0.8 21.84,0.8L14.16,0.8C13.68,0.8 13.3,1.14 13.22,1.62L12.5,6.7C11.32,7.18 10.24,7.84 9.26,8.58L4.48,6.66C4.04,6.5 3.54,6.66 3.3,7.1L-0.52,13.74C-0.76,14.16 -0.68,14.68 -0.28,14.96L3.78,18.12C3.68,18.72 3.6,19.38 3.6,20C3.6,20.62 3.64,21.28 3.74,21.88L-0.32,25.04C-0.68,25.32 -0.78,25.86 -0.56,26.26L3.28,32.9C3.52,33.34 4.02,33.48 4.46,33.34L9.24,31.42C10.24,32.18 11.3,32.82 12.48,33.3L13.2,38.38C13.3,38.86 13.68,39.2 14.16,39.2L21.84,39.2C22.32,39.2 22.72,38.86 22.78,38.38L23.5,33.3C24.68,32.82 25.76,32.18 26.74,31.42L31.52,33.34C31.96,33.5 32.46,33.34 32.7,32.9L36.54,26.26C36.78,25.82 36.68,25.32 36.3,25.04L32.28,21.88ZM18,27.2C14.04,27.2 10.8,23.96 10.8,20C10.8,16.04 14.04,12.8 18,12.8C21.96,12.8 25.2,16.04 25.2,20C25.2,23.96 21.96,27.2 18,27.2Z" fill="#000000"/>
</svg>
