<svg width="30" height="38" viewBox="0 0 30 38" fill="none" xmlns="http://www.w3.org/2000/svg" xmlns:xlink="http://www.w3.org/1999/xlink">
<path d="M14,-0.333C4.228,8.008 -0.667,15.213 -0.667,21.3C-0.667,30.43 6.3,36.333 14,36.333C21.7,36.333 28.667,30.43 28.667,21.3C28.667,15.213 23.772,8.008 14,-0.333ZM19.5,29L8.5,29L8.5,25.333L19.5,25.333L19.5,29ZM19.5,19.833L15.833,19.833L15.833,23.5L12.167,23.5L12.167,19.833L8.5,19.833L8.5,16.167L12.167,16.167L12.167,12.5L15.833,12.5L15.833,16.167L19.5,16.167L19.5,19.833Z" fill="#0000F5"/>
</svg>
