<svg width="32" height="40" viewBox="0 0 32 40" fill="none" xmlns="http://www.w3.org/2000/svg" xmlns:xlink="http://www.w3.org/1999/xlink">
<path d="M22.308,24.333L20.866,24.333L20.354,23.748C22.144,21.278 23.222,18.072 23.222,14.583C23.222,6.805 17.907,0.5 11.35,0.5C4.794,0.5 -0.521,6.805 -0.521,14.583C-0.521,22.362 4.794,28.667 11.35,28.667C14.291,28.667 16.994,27.388 19.076,25.265L19.569,25.872L19.569,27.583L28.701,38.395L31.422,35.167L22.308,24.333ZM11.35,24.333C6.803,24.333 3.132,19.978 3.132,14.583C3.132,9.188 6.803,4.833 11.35,4.833C15.898,4.833 19.569,9.188 19.569,14.583C19.569,19.978 15.898,24.333 11.35,24.333Z" fill="#000000"/>
</svg>
