<svg width="28" height="34" viewBox="0 0 28 34" fill="none" xmlns="http://www.w3.org/2000/svg" xmlns:xlink="http://www.w3.org/1999/xlink">
<path d="M14,32.667C15.833,32.667 17.333,31.167 17.333,29.334L10.667,29.334C10.667,31.167 12.15,32.667 14,32.667ZM24,22.667L24,14.334C24,9.217 21.267,4.934 16.5,3.8L16.5,2.667C16.5,1.284 15.383,0.167 14,0.167C12.617,0.167 11.5,1.284 11.5,2.667L11.5,3.8C6.717,4.934 4,9.2 4,14.334L4,22.667L0.667,26L0.667,27.667L27.333,27.667L27.333,26L24,22.667Z" fill="#000000"/>
</svg>
